<svg width="24" height="24" viewBox="0 0 24 24" fill="none" xmlns="http://www.w3.org/2000/svg">
  <rect x="6.25" y="4.25" width="13.5" height="16.5" rx="2.75" fill="currentColor" fill-opacity="0.07"/>
  <rect x="6.25" y="4.25" width="13.5" height="16.5" rx="2.75" stroke="currentColor" stroke-width="1.3" stroke-opacity="0.35"/>
  <rect x="2.75" y="2.75" width="13.5" height="16.5" rx="2.75" fill="currentColor" fill-opacity="0.1"/>
  <rect x="2.75" y="2.75" width="13.5" height="16.5" rx="2.75" stroke="currentColor" stroke-width="1.5"/>
  <rect x="6.25" y="2.75" width="7" height="5.25" rx="0.85" fill="currentColor" fill-opacity="0.13"/>
  <rect x="6.25" y="2.75" width="7" height="5.25" rx="0.85" stroke="currentColor" stroke-width="1.25"/>
  <rect x="11.25" y="3.4" width="1.5" height="3.65" rx="0.55" fill="currentColor" fill-opacity="0.5"/>
  <path d="M5.75 13.25H14.25" stroke="currentColor" stroke-width="1.1" stroke-linecap="round" stroke-opacity="0.35"/>
  <path d="M5.75 15.75H10.75" stroke="currentColor" stroke-width="1.1" stroke-linecap="round" stroke-opacity="0.25"/>
  <circle cx="18.5" cy="18.5" r="5.5" fill="currentColor"/>
  <path d="M16.5 20.75L20.5 16.75L21.75 18L17.75 22L16.25 22.25Z" fill="white" stroke="white" stroke-width="0.25" stroke-linejoin="round"/>
  <path d="M20 17.5L21.25 18.75" stroke="currentColor" stroke-width="0.65" stroke-opacity="0.35" stroke-linecap="round"/>
</svg>
