<svg width="24" height="24" viewBox="0 0 24 24" fill="none" xmlns="http://www.w3.org/2000/svg">
  <!-- Lid -->
  <path d="M3.5 6.5H20.5" stroke="currentColor" stroke-width="1.6" stroke-linecap="round"/>
  <!-- Lid handle -->
  <path d="M9.5 6.5V5C9.5 4.448 9.948 4 10.5 4H13.5C14.052 4 14.5 4.448 14.5 5V6.5" stroke="currentColor" stroke-width="1.5" stroke-linecap="round" stroke-linejoin="round"/>
  <!-- Bin body fill -->
  <path d="M5.25 6.5L6.1 19.25C6.1 20.216 6.884 21 7.85 21H16.15C17.116 21 17.9 20.216 17.9 19.25L18.75 6.5" fill="currentColor" fill-opacity="0.1"/>
  <!-- Bin body outline -->
  <path d="M5.25 6.5L6.1 19.25C6.1 20.216 6.884 21 7.85 21H16.15C17.116 21 17.9 20.216 17.9 19.25L18.75 6.5" stroke="currentColor" stroke-width="1.5" stroke-linecap="round" stroke-linejoin="round"/>
  <!-- Inner vertical lines -->
  <line x1="10" y1="10" x2="10" y2="17.5" stroke="currentColor" stroke-width="1.2" stroke-linecap="round" stroke-opacity="0.4"/>
  <line x1="12" y1="10" x2="12" y2="17.5" stroke="currentColor" stroke-width="1.2" stroke-linecap="round" stroke-opacity="0.4"/>
  <line x1="14" y1="10" x2="14" y2="17.5" stroke="currentColor" stroke-width="1.2" stroke-linecap="round" stroke-opacity="0.4"/>
</svg>
