<svg width="24" height="24" viewBox="0 0 24 24" fill="none" xmlns="http://www.w3.org/2000/svg">
  <!-- Document body fill -->
  <path d="M4 2.75C4 2.75 4 2.75 4 2.75H14.379C14.644 2.75 14.898 2.855 15.086 3.043L19.457 7.414C19.645 7.602 19.75 7.856 19.75 8.121V21.25C19.75 21.25 19.75 21.25 19.75 21.25C19.75 21.664 19.414 22 19 22H5C4.586 22 4.25 21.664 4.25 21.25V3.5C4.25 3.086 4.586 2.75 5 2.75H14.25" fill="currentColor" fill-opacity="0.1"/>
  <!-- Document outline -->
  <path d="M5 2.75H14.379C14.644 2.75 14.898 2.855 15.086 3.043L19.457 7.414C19.645 7.602 19.75 7.856 19.75 8.121V21C19.75 21.414 19.414 21.75 19 21.75H5C4.586 21.75 4.25 21.414 4.25 21V3.5C4.25 3.086 4.586 2.75 5 2.75Z" stroke="currentColor" stroke-width="1.5" stroke-linejoin="round"/>
  <!-- Folded corner -->
  <path d="M14.25 2.75V7.75H19.25" stroke="currentColor" stroke-width="1.5" stroke-linecap="round" stroke-linejoin="round"/>
  <path d="M14.25 2.75L19.75 8.25" stroke="currentColor" stroke-width="0" />
  <!-- Format badge pill (filled) -->
  <rect x="5.25" y="14.5" width="13.5" height="5.5" rx="1.5" fill="currentColor" fill-opacity="0.85"/>
  <!-- DXF text (white/inverted) -->
  <text x="12" y="18.65" text-anchor="middle" font-family="-apple-system,BlinkMacSystemFont,'SF Pro Text','Helvetica Neue',sans-serif" font-size="4.2" font-weight="700" fill="white" letter-spacing="0.5">DXF</text>
  <!-- Content lines above badge -->
  <path d="M7.5 10H16.5" stroke="currentColor" stroke-width="1.1" stroke-linecap="round" stroke-opacity="0.35"/>
  <path d="M7.5 12.5H13" stroke="currentColor" stroke-width="1.1" stroke-linecap="round" stroke-opacity="0.25"/>
</svg>
