<svg width="24" height="24" viewBox="0 0 24 24" fill="none" xmlns="http://www.w3.org/2000/svg">
  <!-- Terrain silhouette (hill/ground profile) -->
  <path d="M2 18.5C4 18.5 5.5 12.5 8 10C9.5 8.5 10.5 9 12 8C13.5 7 14 5.5 16 6C18 6.5 19 11 21.5 11" stroke="currentColor" stroke-width="1.6" stroke-linecap="round"/>
  <!-- Ground fill under terrain -->
  <path d="M2 18.5C4 18.5 5.5 12.5 8 10C9.5 8.5 10.5 9 12 8C13.5 7 14 5.5 16 6C18 6.5 19 11 21.5 11V21.5H2V18.5Z" fill="currentColor" fill-opacity="0.1"/>
  <!-- Base line -->
  <line x1="2" y1="21.5" x2="22" y2="21.5" stroke="currentColor" stroke-width="1.4" stroke-linecap="round"/>
  <!-- Classification checkmark badge -->
  <circle cx="18.5" cy="7.5" r="5.5" fill="currentColor"/>
  <path d="M15.5 7.5L17.5 9.5L21.5 5.5" stroke="white" stroke-width="1.6" stroke-linecap="round" stroke-linejoin="round"/>
</svg>
